<?xml version="1.0" encoding="UTF-8" standalone="no"?><!DOCTYPE svg PUBLIC "-//W3C//DTD SVG 1.1//EN" "http://www.w3.org/Graphics/SVG/1.1/DTD/svg11.dtd"><svg width="100%" height="100%" viewBox="0 0 72 51" version="1.1" xmlns="http://www.w3.org/2000/svg" xmlns:xlink="http://www.w3.org/1999/xlink" xml:space="preserve" style="fill-rule:evenodd;clip-rule:evenodd;stroke-linejoin:round;stroke-miterlimit:1.41421;"><rect id="Website-enrolment" x="0" y="0" width="71.639" height="50.923" style="fill:none;"/><clipPath id="_clip1"><rect x="0" y="0" width="71.639" height="50.923"/></clipPath><g clip-path="url(#_clip1)"><rect x="-2.579" y="-20.733" width="89.681" height="90.87" style="fill:#fff;"/><path d="M106.284,75.459l-9.054,-37.569l-104.589,20.364l9.054,37.57l104.589,-20.365Z" style="fill:url(#_Radial2);"/><path d="M85.826,15.264l-7.243,-30.054l-99.343,19.343l7.243,30.054l99.343,-19.343Z" style="fill:url(#_Radial3);"/><path d="M40.448,24.471c1.634,-1.363 2.675,-3.419 2.675,-5.706c0,-4.103 -3.336,-7.438 -7.439,-7.438c-4.104,0 -7.439,3.335 -7.439,7.438c0,2.287 1.04,4.343 2.675,5.706c-4.079,1.733 -7.563,5.738 -7.406,11.88l24.339,0c0,0 0.677,-8.322 -7.405,-11.88Z" style="fill:#ef607e;fill-rule:nonzero;"/><circle cx="21.502" cy="34.434" r="8.731" style="fill:#62a4af;"/><path d="M20.822,39.217l1.361,0l0,-4.103l4.102,0l0,-1.36l-4.102,0l0,-4.103l-1.361,0l0,4.103l-4.103,0l0,1.36l4.103,0l0,4.103Z" style="fill:#fff;fill-rule:nonzero;"/></g><defs><radialGradient id="_Radial2" cx="0" cy="0" r="1" gradientUnits="userSpaceOnUse" gradientTransform="matrix(61.8784,-34.274,-57.4715,37.4736,17.4022,66.6715)"><stop offset="0" style="stop-color:#733f8f;stop-opacity:0.15"/><stop offset="1" style="stop-color:#c92639;stop-opacity:0.15"/></radialGradient><radialGradient id="_Radial3" cx="0" cy="0" r="1" gradientUnits="userSpaceOnUse" gradientTransform="matrix(59.5419,-29.3725,-55.496,31.8305,2.30254,10.6531)"><stop offset="0" style="stop-color:#733f8f;stop-opacity:0.15"/><stop offset="1" style="stop-color:#c92639;stop-opacity:0.15"/></radialGradient></defs></svg>