<?xml version="1.0" encoding="UTF-8" standalone="no"?><!DOCTYPE svg PUBLIC "-//W3C//DTD SVG 1.1//EN" "http://www.w3.org/Graphics/SVG/1.1/DTD/svg11.dtd"><svg width="100%" height="100%" viewBox="0 0 72 51" version="1.1" xmlns="http://www.w3.org/2000/svg" xmlns:xlink="http://www.w3.org/1999/xlink" xml:space="preserve" style="fill-rule:evenodd;clip-rule:evenodd;stroke-linejoin:round;stroke-miterlimit:1.41421;"><rect id="Data-export" x="0" y="0" width="71.639" height="50.923" style="fill:none;"/><clipPath id="_clip1"><rect x="0" y="0" width="71.639" height="50.923"/></clipPath><g clip-path="url(#_clip1)"><rect x="-2.579" y="-20.733" width="89.681" height="90.87" style="fill:#fff;"/><path d="M-15.856,73.177l38.489,-2.481l-4.895,-75.924l-38.489,2.481l4.895,75.924Z" style="fill:url(#_Radial2);"/><path d="M46.679,65.002l30.789,-1.985l-4.649,-72.116l-30.789,1.985l4.649,72.116Z" style="fill:url(#_Radial3);"/><path d="M23.201,16.274l0,23.704c0.001,2.627 1.882,4.787 4.167,4.789l18.431,0c2.285,-0.002 4.166,-2.162 4.167,-4.789l0,-23.704c-0.001,-2.626 -1.882,-4.786 -4.167,-4.789l-2.968,0l0,-1.114c0,-0.886 -0.634,-1.614 -1.404,-1.614l-1.107,0c-0.062,-2.304 -1.729,-4.161 -3.735,-4.161c-2.006,0 -3.672,1.857 -3.734,4.161l-1.111,0c-0.77,0 -1.404,0.728 -1.404,1.614l0,1.114l-2.968,0c-2.285,0.003 -4.166,2.163 -4.167,4.789l0,0Zm13.382,-8.942c0.002,0 0.003,0 0.004,0c0.68,0 1.24,0.643 1.24,1.425c0,0.781 -0.56,1.424 -1.24,1.424c-0.68,0 -1.239,-0.643 -1.239,-1.424c0,-0.002 0,-0.003 0,-0.005c0.002,-0.778 0.558,-1.417 1.235,-1.42Zm-4.843,10.849l9.701,0c0.771,0 1.405,-0.728 1.405,-1.614l0,-2.292l2.967,0c0.476,0.002 1.868,1.452 1.87,1.999l0,23.704c-0.002,0.548 -1.394,1.997 -1.87,1.999l-18.445,0c-0.476,-0.002 -1.867,-1.451 -1.869,-1.999l0,-23.704c0.002,-0.547 1.393,-1.997 1.869,-1.999l2.968,0l0,2.296c0.002,0.884 0.635,1.61 1.404,1.61l0,0Zm12.748,18.664c0,0.7 -0.502,1.276 -1.111,1.276l-13.235,0c-0.61,0 -1.112,-0.577 -1.112,-1.278c0,-0.701 0.502,-1.278 1.112,-1.278l13.246,0c0.606,0.007 1.102,0.583 1.1,1.28Zm0,-4.347c0,0.7 -0.502,1.276 -1.111,1.276l-13.235,0c-0.61,0 -1.112,-0.577 -1.112,-1.278c0,-0.701 0.502,-1.278 1.112,-1.278l13.246,0c0.606,0.007 1.102,0.583 1.1,1.28Zm-14.662,-12.17l4.602,3.839l2.155,-1.754c0.188,-0.153 0.444,-0.139 0.618,0.033l3.694,3.678l2.939,-1.148c0.052,-0.019 0.106,-0.029 0.161,-0.029c0.271,0.007 0.491,0.263 0.493,0.574l0,3.22c0,0.315 -0.226,0.574 -0.5,0.574l-14.461,0c-0.27,-0.007 -0.488,-0.264 -0.488,-0.574l0,-7.947c0,-0.001 0,-0.002 0,-0.003c0,-0.314 0.225,-0.574 0.499,-0.574c0.106,0 0.209,0.039 0.295,0.111l-0.007,0Z" style="fill:#62a4af;fill-rule:nonzero;"/></g><defs><radialGradient id="_Radial2" cx="0" cy="0" r="1" gradientUnits="userSpaceOnUse" gradientTransform="matrix(24.8841,47.231,-28.6921,-44.454,5.79941,11.3694)"><stop offset="0" style="stop-color:#733f8f;stop-opacity:0.15"/><stop offset="1" style="stop-color:#c92639;stop-opacity:0.15"/></radialGradient><radialGradient id="_Radial3" cx="0" cy="0" r="1" gradientUnits="userSpaceOnUse" gradientTransform="matrix(20.3757,45.0723,-23.3975,-42.4729,63.4209,6.54098)"><stop offset="0" style="stop-color:#733f8f;stop-opacity:0.15"/><stop offset="1" style="stop-color:#c92639;stop-opacity:0.15"/></radialGradient></defs></svg>