<?xml version="1.0" encoding="UTF-8" standalone="no"?><!DOCTYPE svg PUBLIC "-//W3C//DTD SVG 1.1//EN" "http://www.w3.org/Graphics/SVG/1.1/DTD/svg11.dtd"><svg width="100%" height="100%" viewBox="0 0 72 51" version="1.1" xmlns="http://www.w3.org/2000/svg" xmlns:xlink="http://www.w3.org/1999/xlink" xml:space="preserve" style="fill-rule:evenodd;clip-rule:evenodd;stroke-linecap:round;stroke-linejoin:round;stroke-miterlimit:1.5;"><rect id="Feature:-Branching" x="0" y="0" width="71.639" height="50.923" style="fill:none;"/><clipPath id="_clip1"><rect x="0" y="0" width="71.639" height="50.923"/></clipPath><g clip-path="url(#_clip1)"><rect x="-0.501" y="-21.623" width="89.681" height="90.87" style="fill:#fff;"/><path d="M18.353,82.123l40.803,-27.201l-39.906,-59.862l-40.803,27.201l39.906,59.862Z" style="fill:url(#_Radial2);"/><path d="M72.038,55.108l35.877,-23.918l-40.084,-60.129l-35.878,23.917l40.085,60.13Z" style="fill:url(#_Radial3);"/><path d="M22.694,38.017l0,12.198" style="fill:#ff6781;stroke:#ef607e;stroke-width:1.29px;stroke-dasharray:1.29,2.58,0,0;"/><path d="M48.948,38.017l0,12.198" style="fill:#09c374;stroke:#62a4af;stroke-width:1.29px;stroke-dasharray:1.29,2.58,0,0;"/><path d="M35.421,19.463c0,7.41 -12.924,2.631 -12.97,9.383" style="fill:none;stroke:#4d4d4d;stroke-width:1.29px;"/><path d="M35.43,19.402c0,7.411 13.53,2.632 13.579,9.384" style="fill:none;stroke:#a6a6a6;stroke-width:1.29px;"/><path d="M50.534,15.833c0,-2.456 -1.994,-4.45 -4.451,-4.45l-20.522,0c-2.456,0 -4.45,1.994 -4.45,4.45c0,2.457 1.994,4.451 4.45,4.451l20.522,0c2.457,0 4.451,-1.994 4.451,-4.451Z" style="fill:#808080;"/><path d="M30.944,33.203c0,-2.456 -1.994,-4.45 -4.451,-4.45l-7.599,0c-2.456,0 -4.45,1.994 -4.45,4.45c0,2.457 1.994,4.451 4.45,4.451l7.599,0c2.457,0 4.451,-1.994 4.451,-4.451Z" style="fill:#404040;"/><path d="M57.195,33.203c0,-2.456 -1.994,-4.45 -4.45,-4.45l-7.593,0c-2.457,0 -4.451,1.994 -4.451,4.45c0,2.457 1.994,4.451 4.451,4.451l7.593,0c2.456,0 4.45,-1.994 4.45,-4.451Z" style="fill:#999;"/></g><defs><radialGradient id="_Radial2" cx="0" cy="0" r="1" gradientUnits="userSpaceOnUse" gradientTransform="matrix(48.6186,22.9747,-51.5029,-18.1809,13.8009,16.6433)"><stop offset="0" style="stop-color:#733f8f;stop-opacity:0.15"/><stop offset="1" style="stop-color:#c92639;stop-opacity:0.15"/></radialGradient><radialGradient id="_Radial3" cx="0" cy="0" r="1" gradientUnits="userSpaceOnUse" gradientTransform="matrix(45.9494,25.0012,-48.3196,-20.5373,64.0771,-8.4054)"><stop offset="0" style="stop-color:#733f8f;stop-opacity:0.15"/><stop offset="1" style="stop-color:#c92639;stop-opacity:0.15"/></radialGradient></defs></svg>