<?xml version="1.0" encoding="UTF-8" standalone="no"?><!DOCTYPE svg PUBLIC "-//W3C//DTD SVG 1.1//EN" "http://www.w3.org/Graphics/SVG/1.1/DTD/svg11.dtd"><svg width="100%" height="100%" viewBox="0 0 72 51" version="1.1" xmlns="http://www.w3.org/2000/svg" xmlns:xlink="http://www.w3.org/1999/xlink" xml:space="preserve" style="fill-rule:evenodd;clip-rule:evenodd;stroke-linecap:round;stroke-linejoin:round;stroke-miterlimit:1.5;"><rect id="Team-management" x="0" y="0" width="71.639" height="50.923" style="fill:none;"/><clipPath id="_clip1"><rect x="0" y="0" width="71.639" height="50.923"/></clipPath><g clip-path="url(#_clip1)"><rect x="-2.579" y="-20.733" width="89.681" height="90.87" style="fill:#fff;"/><path d="M-36.125,47.981l34.573,17.096l33.723,-68.199l-34.573,-17.096l-33.723,68.199Z" style="fill:url(#_Radial2);"/><path d="M43.861,65.727l20.804,10.287l32.031,-64.779l-20.803,-10.287l-32.032,64.779Z" style="fill:url(#_Radial3);"/><path d="M38.068,15.194c14.178,0 5.035,16.885 17.954,16.946" style="fill:none;stroke:#737373;stroke-width:1.29px;"/><path d="M38.616,15.194l17.406,0" style="fill:none;stroke:#737373;stroke-width:1.29px;"/><path d="M36.501,35.934l19.521,0" style="fill:none;stroke:#333;stroke-width:1.29px;"/><path d="M37.919,15.194c0,-3.21 -2.605,-5.815 -5.814,-5.815l-16.4,0c-3.209,0 -5.814,2.605 -5.814,5.815c0,3.209 2.605,5.814 5.814,5.814l16.4,0c3.209,0 5.814,-2.605 5.814,-5.814Z" style="fill:#808080;"/><path d="M37.91,35.456c0,-3.209 -2.606,-5.814 -5.815,-5.814l-16.39,0c-3.209,0 -5.814,2.605 -5.814,5.814c0,3.21 2.605,5.815 5.814,5.815l16.39,0c3.209,0 5.815,-2.605 5.815,-5.815Z" style="fill:#262626;"/><path d="M65.374,34.226c0.666,-0.555 1.089,-1.392 1.089,-2.322c0,-1.671 -1.358,-3.028 -3.028,-3.028c-1.67,0 -3.028,1.357 -3.028,3.028c0,0.93 0.423,1.767 1.089,2.322c-1.66,0.706 -3.079,2.336 -3.015,4.836l9.908,0c0,0 0.275,-3.388 -3.015,-4.836Z" style="fill:#62a4af;fill-rule:nonzero;"/><path d="M65.374,15.862c0.666,-0.554 1.089,-1.391 1.089,-2.322c0,-1.67 -1.358,-3.028 -3.028,-3.028c-1.67,0 -3.028,1.358 -3.028,3.028c0,0.931 0.423,1.768 1.089,2.322c-1.66,0.706 -3.079,2.336 -3.015,4.836l9.908,0c0,0 0.275,-3.387 -3.015,-4.836Z" style="fill:#ef607e;fill-rule:nonzero;"/><path d="M65.374,15.862c0.666,-0.554 1.089,-1.391 1.089,-2.322c0,-1.67 -1.358,-3.028 -3.028,-3.028c-1.67,0 -3.028,1.358 -3.028,3.028c0,0.931 0.423,1.768 1.089,2.322c-1.66,0.706 -3.079,2.336 -3.015,4.836l9.908,0c0,0 0.275,-3.387 -3.015,-4.836Z" style="fill:#ef607e;fill-rule:nonzero;"/></g><defs><radialGradient id="_Radial2" cx="0" cy="0" r="1" gradientUnits="userSpaceOnUse" gradientTransform="matrix(-2.06527,53.3453,-2.62108,-52.8443,13.5331,5.28232)"><stop offset="0" style="stop-color:#733f8f;stop-opacity:0.15"/><stop offset="1" style="stop-color:#c92639;stop-opacity:0.15"/></radialGradient><radialGradient id="_Radial3" cx="0" cy="0" r="1" gradientUnits="userSpaceOnUse" gradientTransform="matrix(-8.76233,47.307,5.55258,-46.2172,83.044,21.2217)"><stop offset="0" style="stop-color:#733f8f;stop-opacity:0.15"/><stop offset="1" style="stop-color:#c92639;stop-opacity:0.15"/></radialGradient></defs></svg>