<?xml version="1.0" encoding="UTF-8" standalone="no"?><!DOCTYPE svg PUBLIC "-//W3C//DTD SVG 1.1//EN" "http://www.w3.org/Graphics/SVG/1.1/DTD/svg11.dtd"><svg width="100%" height="100%" viewBox="0 0 72 51" version="1.1" xmlns="http://www.w3.org/2000/svg" xmlns:xlink="http://www.w3.org/1999/xlink" xml:space="preserve" style="fill-rule:evenodd;clip-rule:evenodd;stroke-linejoin:round;stroke-miterlimit:1.41421;"><rect id="Templates" x="0" y="0" width="71.639" height="50.923" style="fill:none;"/><clipPath id="_clip1"><rect x="0" y="0" width="71.639" height="50.923"/></clipPath><g clip-path="url(#_clip1)"><rect x="-0.501" y="-21.623" width="89.681" height="90.87" style="fill:#fff;"/><path d="M-4.052,-27.891l-4.387,48.842l85.624,7.691l4.387,-48.842l-85.624,-7.691Z" style="fill:url(#_Radial2);"/><path d="M-2.691,32.125l-3.858,42.946l81.26,7.3l3.858,-42.946l-81.26,-7.3Z" style="fill:url(#_Radial3);"/><path d="M45.589,8.147c0,-1.46 -1.184,-2.644 -2.644,-2.644l-21.151,0c-1.46,0 -2.644,1.184 -2.644,2.644l0,32.233c0,1.459 1.184,2.644 2.644,2.644l21.151,0c1.46,0 2.644,-1.185 2.644,-2.644l0,-32.233Z" style="fill:#fff;"/><rect x="33.577" y="7.464" width="9.915" height="23.718" style="fill:#62a4af;"/><rect x="21.135" y="7.464" width="9.915" height="23.718" style="fill:#62a4af;"/><rect x="21.135" y="33.709" width="22.746" height="6.416" style="fill:#62a4af;"/><path d="M52.044,13.318c0,-1.502 -1.22,-2.722 -2.722,-2.722l-21.774,0c-1.502,0 -2.722,1.22 -2.722,2.722l0,32.077c0,1.503 1.22,2.722 2.722,2.722l21.774,0c1.502,0 2.722,-1.219 2.722,-2.722l0,-32.077Z" style="fill:#fff;"/><rect x="39.448" y="22.667" width="9.915" height="23.718" style="fill:#ff6781;"/><rect x="26.617" y="13.724" width="22.746" height="6.416" style="fill:#ff6781;"/><rect x="26.617" y="22.472" width="9.915" height="13.22" style="fill:#ff6781;"/><rect x="26.617" y="38.803" width="9.915" height="7.582" style="fill:#ff6781;"/></g><defs><radialGradient id="_Radial2" cx="0" cy="0" r="1" gradientUnits="userSpaceOnUse" gradientTransform="matrix(-57.3257,22.6724,54.9351,-27.9663,60.8849,10.6058)"><stop offset="0" style="stop-color:#733f8f;stop-opacity:0.15"/><stop offset="1" style="stop-color:#c92639;stop-opacity:0.15"/></radialGradient><radialGradient id="_Radial3" cx="0" cy="0" r="1" gradientUnits="userSpaceOnUse" gradientTransform="matrix(-54.2311,19.5918,51.9309,-24.2646,59.139,66.4004)"><stop offset="0" style="stop-color:#733f8f;stop-opacity:0.15"/><stop offset="1" style="stop-color:#c92639;stop-opacity:0.15"/></radialGradient></defs></svg>