<?xml version="1.0" encoding="UTF-8" standalone="no"?><!DOCTYPE svg PUBLIC "-//W3C//DTD SVG 1.1//EN" "http://www.w3.org/Graphics/SVG/1.1/DTD/svg11.dtd"><svg width="100%" height="100%" viewBox="0 0 1405 177" version="1.1" xmlns="http://www.w3.org/2000/svg" xmlns:xlink="http://www.w3.org/1999/xlink" xml:space="preserve" style="fill-rule:evenodd;clip-rule:evenodd;stroke-linejoin:round;stroke-miterlimit:1.41421;"><rect id="LOGO" x="0" y="0" width="1404.38" height="176.897" style="fill:none;"/><g transform="matrix(1,0,0,1,475.437,-65.6922)"><clipPath id="_clip1"><path d="M164.482,75.17c12.447,0 23.273,2.302 32.48,6.905c9.206,4.603 16.258,10.955 21.155,19.056c4.898,8.102 7.347,17.345 7.347,27.729c0,10.311 -2.431,19.333 -7.292,27.066c-4.86,7.733 -11.894,13.699 -21.1,17.897c-9.206,4.198 -20.069,6.297 -32.59,6.297l-28.502,0l0,55.899l-34.688,0l0,-160.849l63.19,0Zm0,76.889c8.765,0 15.283,-2.062 19.554,-6.186c4.272,-4.124 6.408,-9.722 6.408,-16.792c0,-4.714 -0.921,-9.022 -2.762,-12.925c-1.841,-3.904 -4.714,-7.034 -8.617,-9.391c-3.903,-2.356 -8.764,-3.535 -14.583,-3.535l-28.502,0l0,48.829l28.502,0Zm206.144,28.834c0,12.152 -2.615,22.536 -7.844,31.153c-5.229,8.617 -12.502,15.135 -21.819,19.554c-9.316,4.419 -20.087,6.629 -32.313,6.629c-12.299,0 -23.144,-2.21 -32.534,-6.629c-9.391,-4.419 -16.7,-10.937 -21.929,-19.554c-5.229,-8.617 -7.844,-19.001 -7.844,-31.153l0,-105.723l34.799,0l0,105.723c0,19.591 9.169,29.386 27.508,29.386c8.912,0 15.687,-2.375 20.327,-7.126c4.64,-4.75 6.96,-12.17 6.96,-22.26l0,-105.723l34.689,0l0,105.723Zm76.557,-105.723c14.362,0 27.122,3.222 38.279,9.666c11.158,6.445 19.867,15.504 26.127,27.177c6.261,11.673 9.391,25.022 9.391,40.046l0,7.071c0,15.098 -3.13,28.465 -9.391,40.101c-6.26,11.637 -14.987,20.677 -26.182,27.122c-11.194,6.444 -24.009,9.666 -38.444,9.666l-34.91,0l-15.024,0l0,-160.849l50.154,0Zm38.556,76.668c0,-15.908 -3.278,-27.986 -9.832,-36.235c-6.555,-8.248 -16.13,-12.373 -28.724,-12.373l-15.466,0l0,104.839l15.246,0c12.593,0 22.205,-4.179 28.833,-12.538c6.628,-8.36 9.943,-20.493 9.943,-36.401l0,-7.292Zm108.374,-76.668c14.361,0 27.121,3.222 38.279,9.666c11.158,6.445 19.867,15.504 26.127,27.177c6.26,11.673 9.39,25.022 9.39,40.046l0,7.071c0,15.098 -3.13,28.465 -9.39,40.101c-6.26,11.637 -14.988,20.677 -26.182,27.122c-11.195,6.444 -24.01,9.666 -38.445,9.666l-34.91,0l-15.024,0l0,-160.849l50.155,0Zm38.555,76.668c0,-15.908 -3.277,-27.986 -9.832,-36.235c-6.555,-8.248 -16.129,-12.373 -28.723,-12.373l-15.466,0l0,104.839l15.245,0c12.594,0 22.205,-4.179 28.833,-12.538c6.629,-8.36 9.943,-20.493 9.943,-36.401l0,-7.292Zm162.506,56.231l0,27.95l-80.866,0l-23.421,0l0,-160.849l34.689,0l0,132.899l69.598,0Zm126.934,0l0,27.95l-85.175,0l-23.42,0l0,-160.849l108.485,0l0,28.06l-73.797,0l0,36.567l62.86,0l0,27.066l-62.86,0l0,41.206l73.907,0Z" clip-rule="nonzero"/></clipPath><g clip-path="url(#_clip1)"><text x="87.483px" y="236.019px" style="font-family:'Heebo-Bold', 'Heebo';font-weight:700;font-size:226.249px;fill:#fff;">PUDDLE</text><g transform="matrix(0.044639,-0.314924,0.909521,0.12892,-17.7468,328.684)"><rect x="680.957" y="85.558" width="245" height="148" style="fill:url(#_Radial2);"/></g><g transform="matrix(-0.160947,-0.128835,0.691438,-0.863775,189.858,429.939)"><path d="M925.957,85.558l-245,0l42.284,143.594l183.842,24.71l18.874,-168.304Z" style="fill:url(#_Radial3);"/></g><g transform="matrix(-0.362197,-5.96828e-18,4.16334e-16,-0.95527,431.845,337.954)"><rect x="680.957" y="85.558" width="245" height="148" style="fill:url(#_Radial4);"/></g><g transform="matrix(-0.362197,-5.96828e-18,5.817e-16,-1.3347,573.383,373.373)"><rect x="680.957" y="85.558" width="245" height="148" style="fill:url(#_Radial5);"/></g><g transform="matrix(-3.11627e-17,0.446772,-0.851107,-7.69645e-16,590.059,-169.948)"><rect x="680.957" y="85.558" width="245" height="148" style="fill:url(#_Radial6);"/></g><g transform="matrix(0.315225,4.32418e-17,-7.31893e-16,1.19869,388.123,-21.9271)"><rect x="680.957" y="85.558" width="245" height="148" style="fill:url(#_Radial7);"/></g><g transform="matrix(0.315225,4.32418e-17,-7.31893e-16,1.19869,388.123,-21.9271)"><rect x="680.957" y="85.558" width="245" height="148" style="fill:url(#_Radial8);"/></g><g transform="matrix(0.581962,7.98322e-17,-7.31893e-16,1.19869,410.522,-33.9533)"><rect x="680.957" y="85.558" width="245" height="148" style="fill:url(#_Radial9);"/></g><g transform="matrix(-2.81465e-17,0.362197,-0.615936,-3.06158e-16,427.6,-61.3076)"><rect x="680.957" y="85.558" width="245" height="148" style="fill:url(#_Radial10);"/></g><g transform="matrix(0.230965,4.88613e-17,-2.41752e-16,0.759761,312.873,9.87595)"><rect x="680.957" y="85.558" width="245" height="148" style="fill:url(#_Radial11);"/></g><g transform="matrix(7.8821e-17,-0.325288,0.900754,4.41006e-16,462.909,368.458)"><rect x="680.957" y="85.558" width="245" height="148" style="fill:url(#_Radial12);"/></g><g transform="matrix(8.3368e-17,-0.344053,0.900754,4.41006e-16,732.296,373.808)"><rect x="680.957" y="85.558" width="245" height="148" style="fill:url(#_Radial13);"/></g><g transform="matrix(-0.335889,-1.71085e-16,4.02235e-16,-1.23395,992.126,349.919)"><rect x="680.957" y="85.558" width="245" height="148" style="fill:url(#_Radial14);"/></g><g transform="matrix(0.272391,-2.26362e-17,-2.77188e-16,0.824355,123.122,-2.6477)"><rect x="680.957" y="85.558" width="245" height="148" style="fill:url(#_Radial15);"/></g><g transform="matrix(6.13921e-18,-0.335996,0.525673,3.74101e-16,350.279,385.451)"><rect x="680.957" y="85.558" width="245" height="148" style="fill:url(#_Radial16);"/></g><g transform="matrix(-0.316895,-1.32235e-17,5.14897e-16,-0.892032,832.892,328.754)"><rect x="680.957" y="85.558" width="245" height="148" style="fill:url(#_Radial17);"/></g><g transform="matrix(-0.316895,-1.32235e-17,5.14897e-16,-0.892032,832.892,328.754)"><rect x="680.957" y="85.558" width="245" height="148" style="fill:url(#_Radial18);"/></g><g transform="matrix(-0.316895,-1.32235e-17,2.33406e-16,-0.404363,1102.28,275.003)"><rect x="680.957" y="85.558" width="245" height="148" style="fill:url(#_Radial19);"/></g><g transform="matrix(-3.23186e-17,0.385681,-0.280452,-3.16547e-16,821.798,-117.79)"><rect x="680.957" y="85.558" width="245" height="148" style="fill:url(#_Radial20);"/></g></g></g><g transform="matrix(1,0,0,1,-83.6072,-69.3638)"><clipPath id="_clip21"><path d="M235.517,75.17l-55.679,160.849l-25.409,0l-11.157,0l-55.237,-160.849l38.334,0l35.241,119.532l35.241,-119.532l38.666,0Zm90.588,128.922l-57.004,0l-10.495,31.927l-36.898,0l59.655,-160.849l32.258,0l59.987,160.849l-37.008,0l-10.495,-31.927Zm-9.28,-28.06l-19.333,-58.661l-19.222,58.661l38.555,0Zm123.62,-7.07c-10.9,-3.535 -20.272,-7.457 -28.116,-11.766c-7.843,-4.308 -14.122,-9.703 -18.836,-16.184c-4.713,-6.481 -7.07,-14.177 -7.07,-23.089c0,-8.911 2.56,-16.773 7.678,-23.586c5.119,-6.812 12.207,-12.078 21.266,-15.798c9.059,-3.719 19.407,-5.578 31.043,-5.578c11.71,0 22.058,2.08 31.043,6.241c8.985,4.161 15.945,10.017 20.88,17.566c4.934,7.549 7.401,16.184 7.401,25.906l-34.578,0c0,-6.776 -2.154,-12.171 -6.462,-16.185c-4.309,-4.014 -10.624,-6.021 -18.947,-6.021c-5.302,0 -9.813,0.774 -13.533,2.32c-3.719,1.547 -6.518,3.664 -8.396,6.353c-1.878,2.688 -2.817,5.689 -2.817,9.003c0,4.935 2.541,9.114 7.623,12.539c5.082,3.424 12.962,6.794 23.641,10.108c18.044,5.524 31.467,12.428 40.268,20.714c8.801,8.285 13.201,18.909 13.201,31.871c0,9.354 -2.393,17.4 -7.18,24.139c-4.788,6.739 -11.582,11.876 -20.383,15.411c-8.801,3.535 -19.13,5.303 -30.988,5.303c-11.341,0 -22.002,-1.952 -31.982,-5.856c-9.979,-3.903 -18.099,-9.887 -24.359,-17.951c-6.26,-8.065 -9.39,-17.952 -9.39,-29.663l34.799,0c0,9.207 2.67,15.853 8.009,19.941c5.34,4.087 12.981,6.131 22.923,6.131c7.881,0 13.828,-1.583 17.842,-4.75c4.014,-3.167 6.021,-7.328 6.021,-12.484c0,-3.829 -0.81,-7.033 -2.431,-9.611c-1.62,-2.578 -4.603,-5.045 -8.948,-7.402c-4.345,-2.356 -10.753,-4.897 -19.222,-7.622Zm209.567,-65.732l-49.05,0l0,132.789l-34.578,0l0,-132.789l-48.277,0l0,-28.06l131.905,0l0,28.06Z" clip-rule="nonzero"/></clipPath><g clip-path="url(#_clip21)"><text x="87.483px" y="236.019px" style="font-family:'Heebo-Bold', 'Heebo';font-weight:700;font-size:226.249px;fill:#fff;">V<tspan x="221.155px " y="236.019px ">A</tspan>ST</text><g transform="matrix(-0.411938,-6.78791e-18,5.817e-16,-1.3347,464.772,370.781)"><rect x="680.957" y="85.558" width="245" height="148" style="fill:url(#_Radial22);"/></g><g transform="matrix(-3.69764e-17,0.498706,-1.04517,-6.45296e-16,465.641,-215.016)"><rect x="680.957" y="85.558" width="245" height="148" style="fill:url(#_Radial23);"/></g><g transform="matrix(0.523211,9.18676e-17,-5.3841e-16,1.16651,27.7104,-34.6516)"><rect x="680.957" y="85.558" width="245" height="148" style="fill:url(#_Radial24);"/></g><g transform="matrix(0.546802,9.60098e-17,-5.3841e-16,1.16651,144.408,-29.5204)"><rect x="680.957" y="85.558" width="245" height="148" style="fill:url(#_Radial25);"/></g><g transform="matrix(-3.46566e-17,0.445971,-0.641939,-3.19083e-16,259.762,-141.471)"><rect x="680.957" y="85.558" width="245" height="148" style="fill:url(#_Radial26);"/></g><g transform="matrix(0.292183,4.68665e-17,-4.69448e-16,1.04151,98.632,-28.568)"><rect x="680.957" y="85.558" width="245" height="148" style="fill:url(#_Radial27);"/></g><g transform="matrix(5.38841e-17,-0.326106,0.75371,5.70103e-16,312.932,374.968)"><rect x="680.957" y="85.558" width="245" height="148" style="fill:url(#_Radial28);"/></g><g transform="matrix(7.27755e-17,-0.440436,0.415878,3.14568e-16,550.26,467.574)"><rect x="680.957" y="85.558" width="245" height="148" style="fill:url(#_Radial29);"/></g><g transform="matrix(0.316896,-2.63347e-17,-2.77188e-16,0.824355,-54.7977,-5.23973)"><rect x="680.957" y="85.558" width="245" height="148" style="fill:url(#_Radial30);"/></g><g transform="matrix(-1.49148e-18,-0.383645,0.695367,3.4096e-16,180.786,413.991)"><rect x="680.957" y="85.558" width="245" height="148" style="fill:url(#_Radial31);"/></g><g transform="matrix(-0.528955,-2.92176e-17,2.74547e-16,-0.724095,871.044,271.129)"><rect x="680.957" y="85.558" width="245" height="148" style="fill:url(#_Radial32);"/></g><g transform="matrix(-0.343445,-1.89707e-17,2.36753e-16,-0.624418,883.262,252.98)"><rect x="680.957" y="85.558" width="245" height="148" style="fill:url(#_Radial33);"/></g></g></g><defs><radialGradient id="_Radial2" cx="0" cy="0" r="1" gradientUnits="userSpaceOnUse" gradientTransform="matrix(-185.718,80.9657,-22.9997,-114.772,901.193,120.308)"><stop offset="0" style="stop-color:#e5522a;stop-opacity:1"/><stop offset="1" style="stop-color:#f9cd01;stop-opacity:1"/></radialGradient><radialGradient id="_Radial3" cx="0" cy="0" r="1" gradientUnits="userSpaceOnUse" gradientTransform="matrix(-185.718,80.9657,-22.9997,-114.772,901.193,120.308)"><stop offset="0" style="stop-color:#e5522a;stop-opacity:1"/><stop offset="1" style="stop-color:#f9cd01;stop-opacity:1"/></radialGradient><radialGradient id="_Radial4" cx="0" cy="0" r="1" gradientUnits="userSpaceOnUse" gradientTransform="matrix(115.455,-4.47123,-100.626,26.9273,697.698,186.204)"><stop offset="0" style="stop-color:#e5522a;stop-opacity:1"/><stop offset="1" style="stop-color:#f9cd01;stop-opacity:1"/></radialGradient><radialGradient id="_Radial5" cx="0" cy="0" r="1" gradientUnits="userSpaceOnUse" gradientTransform="matrix(195.242,-44.5764,-71.9019,81.6024,697.698,186.204)"><stop offset="0" style="stop-color:#e5522a;stop-opacity:1"/><stop offset="1" style="stop-color:#f9cd01;stop-opacity:1"/></radialGradient><radialGradient id="_Radial6" cx="0" cy="0" r="1" gradientUnits="userSpaceOnUse" gradientTransform="matrix(195.242,-44.5764,-71.9019,81.6024,697.698,186.204)"><stop offset="0" style="stop-color:#e5522a;stop-opacity:1"/><stop offset="1" style="stop-color:#f9cd01;stop-opacity:1"/></radialGradient><radialGradient id="_Radial7" cx="0" cy="0" r="1" gradientUnits="userSpaceOnUse" gradientTransform="matrix(195.242,-44.5764,-71.9019,81.6024,697.698,186.204)"><stop offset="0" style="stop-color:#e5522a;stop-opacity:1"/><stop offset="1" style="stop-color:#f9cd01;stop-opacity:1"/></radialGradient><radialGradient id="_Radial8" cx="0" cy="0" r="1" gradientUnits="userSpaceOnUse" gradientTransform="matrix(195.242,-44.5764,-71.9019,81.6024,697.698,186.204)"><stop offset="0" style="stop-color:#e5522a;stop-opacity:1"/><stop offset="1" style="stop-color:#f9cd01;stop-opacity:1"/></radialGradient><radialGradient id="_Radial9" cx="0" cy="0" r="1" gradientUnits="userSpaceOnUse" gradientTransform="matrix(195.242,-44.5764,-71.9019,81.6024,697.698,186.204)"><stop offset="0" style="stop-color:#e5522a;stop-opacity:1"/><stop offset="1" style="stop-color:#f9cd01;stop-opacity:1"/></radialGradient><radialGradient id="_Radial10" cx="0" cy="0" r="1" gradientUnits="userSpaceOnUse" gradientTransform="matrix(78.2809,-107.25,-49.382,109.82,782.926,226.174)"><stop offset="0" style="stop-color:#e5522a;stop-opacity:1"/><stop offset="1" style="stop-color:#f9cd01;stop-opacity:1"/></radialGradient><radialGradient id="_Radial11" cx="0" cy="0" r="1" gradientUnits="userSpaceOnUse" gradientTransform="matrix(78.2809,-107.25,-49.382,109.82,782.926,226.174)"><stop offset="0" style="stop-color:#e5522a;stop-opacity:1"/><stop offset="1" style="stop-color:#f9cd01;stop-opacity:1"/></radialGradient><radialGradient id="_Radial12" cx="0" cy="0" r="1" gradientUnits="userSpaceOnUse" gradientTransform="matrix(78.2809,-107.25,-49.382,109.82,782.926,226.174)"><stop offset="0" style="stop-color:#e5522a;stop-opacity:1"/><stop offset="1" style="stop-color:#f9cd01;stop-opacity:1"/></radialGradient><radialGradient id="_Radial13" cx="0" cy="0" r="1" gradientUnits="userSpaceOnUse" gradientTransform="matrix(78.2809,-107.25,-49.382,109.82,782.926,226.174)"><stop offset="0" style="stop-color:#e5522a;stop-opacity:1"/><stop offset="1" style="stop-color:#f9cd01;stop-opacity:1"/></radialGradient><radialGradient id="_Radial14" cx="0" cy="0" r="1" gradientUnits="userSpaceOnUse" gradientTransform="matrix(78.2809,-107.25,-49.382,109.82,782.926,226.174)"><stop offset="0" style="stop-color:#e5522a;stop-opacity:1"/><stop offset="1" style="stop-color:#f9cd01;stop-opacity:1"/></radialGradient><radialGradient id="_Radial15" cx="0" cy="0" r="1" gradientUnits="userSpaceOnUse" gradientTransform="matrix(78.2809,-107.25,-49.382,109.82,782.926,226.174)"><stop offset="0" style="stop-color:#e5522a;stop-opacity:1"/><stop offset="1" style="stop-color:#f9cd01;stop-opacity:1"/></radialGradient><radialGradient id="_Radial16" cx="0" cy="0" r="1" gradientUnits="userSpaceOnUse" gradientTransform="matrix(78.2809,-107.25,-49.382,109.82,782.926,226.174)"><stop offset="0" style="stop-color:#e5522a;stop-opacity:1"/><stop offset="1" style="stop-color:#f9cd01;stop-opacity:1"/></radialGradient><radialGradient id="_Radial17" cx="0" cy="0" r="1" gradientUnits="userSpaceOnUse" gradientTransform="matrix(78.2809,-107.25,-49.382,109.82,782.926,226.174)"><stop offset="0" style="stop-color:#e5522a;stop-opacity:1"/><stop offset="1" style="stop-color:#f9cd01;stop-opacity:1"/></radialGradient><radialGradient id="_Radial18" cx="0" cy="0" r="1" gradientUnits="userSpaceOnUse" gradientTransform="matrix(78.2809,-107.25,-49.382,109.82,782.926,226.174)"><stop offset="0" style="stop-color:#e5522a;stop-opacity:1"/><stop offset="1" style="stop-color:#f9cd01;stop-opacity:1"/></radialGradient><radialGradient id="_Radial19" cx="0" cy="0" r="1" gradientUnits="userSpaceOnUse" gradientTransform="matrix(78.2809,-107.25,-49.382,109.82,782.926,226.174)"><stop offset="0" style="stop-color:#e5522a;stop-opacity:1"/><stop offset="1" style="stop-color:#f9cd01;stop-opacity:1"/></radialGradient><radialGradient id="_Radial20" cx="0" cy="0" r="1" gradientUnits="userSpaceOnUse" gradientTransform="matrix(-79.7064,-115.827,82.4454,74.2033,932.598,223.315)"><stop offset="0" style="stop-color:#e5522a;stop-opacity:1"/><stop offset="1" style="stop-color:#f9cd01;stop-opacity:1"/></radialGradient><radialGradient id="_Radial22" cx="0" cy="0" r="1" gradientUnits="userSpaceOnUse" gradientTransform="matrix(195.242,-44.5764,-71.9019,81.6024,697.698,186.204)"><stop offset="0" style="stop-color:#733f8f;stop-opacity:1"/><stop offset="1" style="stop-color:#c92639;stop-opacity:1"/></radialGradient><radialGradient id="_Radial23" cx="0" cy="0" r="1" gradientUnits="userSpaceOnUse" gradientTransform="matrix(195.242,-44.5764,-71.9019,81.6024,697.698,186.204)"><stop offset="0" style="stop-color:#733f8f;stop-opacity:1"/><stop offset="1" style="stop-color:#c92639;stop-opacity:1"/></radialGradient><radialGradient id="_Radial24" cx="0" cy="0" r="1" gradientUnits="userSpaceOnUse" gradientTransform="matrix(195.242,-44.5764,-71.9019,81.6024,697.698,186.204)"><stop offset="0" style="stop-color:#733f8f;stop-opacity:1"/><stop offset="1" style="stop-color:#c92639;stop-opacity:1"/></radialGradient><radialGradient id="_Radial25" cx="0" cy="0" r="1" gradientUnits="userSpaceOnUse" gradientTransform="matrix(195.242,-44.5764,-71.9019,81.6024,697.698,186.204)"><stop offset="0" style="stop-color:#733f8f;stop-opacity:1"/><stop offset="1" style="stop-color:#c92639;stop-opacity:1"/></radialGradient><radialGradient id="_Radial26" cx="0" cy="0" r="1" gradientUnits="userSpaceOnUse" gradientTransform="matrix(-110.995,18.6431,104.331,-26.6994,886.721,141.245)"><stop offset="0" style="stop-color:#733f8f;stop-opacity:1"/><stop offset="1" style="stop-color:#c92639;stop-opacity:1"/></radialGradient><radialGradient id="_Radial27" cx="0" cy="0" r="1" gradientUnits="userSpaceOnUse" gradientTransform="matrix(-110.995,18.6431,104.331,-26.6994,886.721,141.245)"><stop offset="0" style="stop-color:#733f8f;stop-opacity:1"/><stop offset="1" style="stop-color:#c92639;stop-opacity:1"/></radialGradient><radialGradient id="_Radial28" cx="0" cy="0" r="1" gradientUnits="userSpaceOnUse" gradientTransform="matrix(-110.995,18.6431,104.331,-26.6994,886.721,141.245)"><stop offset="0" style="stop-color:#733f8f;stop-opacity:1"/><stop offset="1" style="stop-color:#c92639;stop-opacity:1"/></radialGradient><radialGradient id="_Radial29" cx="0" cy="0" r="1" gradientUnits="userSpaceOnUse" gradientTransform="matrix(-110.995,18.6431,104.331,-26.6994,886.721,141.245)"><stop offset="0" style="stop-color:#733f8f;stop-opacity:1"/><stop offset="1" style="stop-color:#c92639;stop-opacity:1"/></radialGradient><radialGradient id="_Radial30" cx="0" cy="0" r="1" gradientUnits="userSpaceOnUse" gradientTransform="matrix(-138.442,-94.8015,163.716,89.8872,763.421,202.832)"><stop offset="0" style="stop-color:#733f8f;stop-opacity:1"/><stop offset="1" style="stop-color:#c92639;stop-opacity:1"/></radialGradient><radialGradient id="_Radial31" cx="0" cy="0" r="1" gradientUnits="userSpaceOnUse" gradientTransform="matrix(-138.442,-94.8015,163.716,89.8872,763.421,202.832)"><stop offset="0" style="stop-color:#733f8f;stop-opacity:1"/><stop offset="1" style="stop-color:#c92639;stop-opacity:1"/></radialGradient><radialGradient id="_Radial32" cx="0" cy="0" r="1" gradientUnits="userSpaceOnUse" gradientTransform="matrix(-138.442,-94.8015,163.716,89.8872,763.421,202.832)"><stop offset="0" style="stop-color:#733f8f;stop-opacity:1"/><stop offset="1" style="stop-color:#c92639;stop-opacity:1"/></radialGradient><radialGradient id="_Radial33" cx="0" cy="0" r="1" gradientUnits="userSpaceOnUse" gradientTransform="matrix(-138.442,-94.8015,163.716,89.8872,763.421,202.832)"><stop offset="0" style="stop-color:#733f8f;stop-opacity:1"/><stop offset="1" style="stop-color:#c92639;stop-opacity:1"/></radialGradient></defs></svg>