<svg id="Layer_1" xmlns="http://www.w3.org/2000/svg" width="237" height="159.5">
  <style>
    .st0{fill:#fc3468}.st1{fill:#317289}
  </style>
  <path class="st0" d="M92.4 124.9H80.8v-8.7h10.1v-4.1H80.8v-8.3h11v-4.1H75.9V129h16.5v-4.1zm-22.1-1.6c-2 1.3-4.4 2-7.2 2-3 0-5.4-1-7.3-2.9s-2.8-4.5-2.8-7.7c0-3.4 1-6.1 3-8.2s4.6-3.1 7.7-3.1c2.4 0 4.6.6 6.6 1.8v-4.8c-1.9-.8-4.2-1.2-7.1-1.2-4.4 0-8.1 1.4-11 4.3s-4.3 6.7-4.3 11.4c0 4.4 1.3 7.9 3.9 10.6s6 4 10.3 4c3.3 0 6-.6 8.3-1.7v-4.5zm-42.2-5.8l4-11.7c.2-.5.3-1.1.4-1.8h.1c.1.8.3 1.5.4 1.8l4.1 11.7h-9zm7.3-17.9h-5.5l-11 29.4h5.3l2.5-7.5h11.6L41 129h5.4l-11-29.4zm-15.9 0H3.6V129h4.9v-12.3h10.1v-4.1H8.5v-8.8h11v-4.2z"/>
  <path class="st1" d="M232.9 99.6H228V112h-13.8V99.6h-4.9V129h4.9v-12.8H228V129h4.9V99.6zm-29.2 23.7c-2 1.3-4.4 2-7.2 2-3 0-5.4-1-7.3-2.9s-2.8-4.5-2.8-7.7c0-3.4 1-6.1 3-8.2s4.6-3.1 7.7-3.1c2.4 0 4.6.6 6.6 1.8v-4.8c-1.9-.8-4.2-1.2-7.1-1.2-4.4 0-8.1 1.4-11 4.3s-4.3 6.7-4.3 11.4c0 4.4 1.3 7.9 3.9 10.6s6 4 10.3 4c3.3 0 6-.6 8.3-1.7v-4.5zm-23.1-23.7h-21.8v4.1h8.4V129h4.9v-25.3h8.4v-4.1zm-38.3 17.9l4-11.7c.2-.5.3-1.1.4-1.8h.1c.1.8.3 1.5.4 1.8l4.1 11.7h-9zm7.4-17.9h-5.5l-11 29.4h5.3l2.5-7.5h11.6l2.6 7.5h5.4l-10.9-29.4zm-20.5 0h-6.6l-7.9 19.5c-.3.8-.7 1.9-1.2 3.4h-.1c-.2-.7-.6-1.9-1.1-3.4l-7.7-19.6h-6.9V129h4.5v-19c0-2.7-.1-4.6-.2-5.8h.1c.3 1.3.5 2.3.8 2.9l8.8 21.8h3.4l8.8-22c.2-.6.5-1.5.8-2.8h.1c-.2 2.3-.3 4.2-.3 5.7v19h4.8V99.6zM227.3 154.7c.6 0 1.1-.1 1.6-.2s1-.3 1.4-.6.7-.6.9-.9.4-.8.4-1.3c0-.4-.1-.8-.2-1.1s-.3-.6-.6-.8-.5-.4-.9-.6-.7-.4-1.2-.5l-.9-.3c-.3-.1-.5-.2-.6-.3s-.3-.2-.4-.4-.1-.3-.1-.5 0-.3.1-.5.2-.3.4-.4.4-.2.6-.2.5-.1.8-.1c.9 0 1.7.2 2.4.7v-2c-.7-.3-1.6-.4-2.5-.4-.5 0-1 .1-1.5.2s-.9.3-1.3.6-.7.6-.9.9-.3.8-.3 1.3c0 .4.1.7.2 1s.3.6.5.8.5.4.8.6.7.4 1.1.5l.9.3c.3.1.5.2.7.3s.4.3.5.4.2.4.2.6c0 .8-.7 1.2-2.1 1.2-1 0-2-.3-2.8-1v2.1c.7.4 1.7.6 2.8.6zm-5.2-10.2h-2.3v10h2.3v-10zm-.2-2.5c.3-.3.4-.6.4-.9 0-.4-.1-.7-.4-.9s-.6-.4-1-.4-.7.1-1 .4-.4.6-.4.9.1.7.4.9.6.4 1 .4.8-.1 1-.4zm-8.5 12.7c.6 0 1.1-.1 1.6-.2s1-.3 1.4-.6.7-.6.9-.9.4-.8.4-1.3c0-.4-.1-.8-.2-1.1s-.3-.6-.6-.8-.5-.4-.9-.6-.7-.4-1.2-.5l-.9-.3c-.3-.1-.5-.2-.6-.3s-.3-.2-.4-.4-.1-.3-.1-.5 0-.3.1-.5.2-.3.4-.4.4-.2.6-.2.5-.1.8-.1c.9 0 1.7.2 2.4.7v-2c-.7-.3-1.6-.4-2.5-.4-.5 0-1 .1-1.5.2s-.9.3-1.3.6-.7.6-.9.9-.3.8-.3 1.3c0 .4.1.7.2 1s.3.6.5.8.5.4.8.6.7.4 1.1.5l.9.3c.3.1.5.2.7.3s.4.3.5.4.2.4.2.6c0 .8-.7 1.2-2.1 1.2-1 0-2-.3-2.8-1v2.1c.8.4 1.7.6 2.8.6zm-7.5-7.8c.5.6.7 1.4.7 2.5s-.2 1.9-.7 2.5-1.2.9-2.1.9c-.9 0-1.6-.3-2.1-.9s-.8-1.4-.8-2.5.3-1.9.8-2.6 1.2-.9 2.1-.9c.9.1 1.6.4 2.1 1zm1.6 6.4c.9-1 1.4-2.2 1.4-3.8 0-1.6-.4-2.9-1.3-3.8s-2.1-1.4-3.7-1.4-2.9.5-3.9 1.4-1.4 2.3-1.4 3.9c0 1.5.5 2.8 1.4 3.7s2.2 1.4 3.7 1.4c1.6 0 2.8-.5 3.8-1.4zm-11-4.9c0-1.3-.3-2.4-.9-3.1s-1.4-1.1-2.5-1.1c-1.4 0-2.5.6-3.2 1.9v-1.7h-2.3v10h2.3v-5.7c0-.8.2-1.4.7-2s1-.8 1.7-.8c1.3 0 2 .9 2 2.8v5.6h2.3v-5.9zm-14.8 3.7c-.5.6-1.1.8-1.9.8-.8 0-1.4-.3-1.9-.9s-.7-1.4-.7-2.4c0-1.1.2-2 .7-2.7s1.2-1 2-1c.7 0 1.3.2 1.7.7s.7 1.1.7 1.8v1.3c.1 1.1-.2 1.8-.6 2.4zm2.9-7.6h-2.3v1.4c-.6-1.1-1.6-1.6-2.9-1.6-1.4 0-2.5.5-3.3 1.5s-1.2 2.4-1.2 4.1c0 1.5.4 2.7 1.1 3.6s1.7 1.3 2.9 1.3c1.5 0 2.6-.6 3.4-1.9v1.1c0 2.3-1.2 3.5-3.6 3.5-1 0-2-.3-3.1-.9v2.1c1 .4 2.1.7 3.4.7 3.7 0 5.5-1.8 5.5-5.5v-9.4zm-14 5.9c0 .7-.2 1.3-.7 1.8s-1 .7-1.7.7c-.5 0-.9-.1-1.2-.4s-.5-.6-.5-1c0-.6.2-1 .5-1.2s.8-.4 1.5-.5l2.1-.3v.9zm2.2-2.4c0-2.5-1.3-3.7-3.8-3.7-1.4 0-2.6.3-3.7.9v2c1-.8 2-1.2 3.2-1.2 1.4 0 2 .7 2 2.1l-3 .4c-2.2.3-3.3 1.4-3.3 3.3 0 .9.3 1.6.8 2.1s1.3.8 2.3.8c1.3 0 2.3-.6 3-1.8v1.6h2.2V148zm-10.7-3.5h-2.3v10h2.3v-10zm-.1-2.5c.3-.3.4-.6.4-.9 0-.4-.1-.7-.4-.9s-.6-.4-1-.4-.7.1-1 .4-.4.6-.4.9.1.7.4.9.6.4 1 .4.7-.1 1-.4zm-8 10.1c-.5.6-1.1.9-1.9.9-.8 0-1.4-.3-1.9-.9s-.7-1.4-.7-2.4c0-1.1.2-2 .7-2.6s1.2-.9 2-.9c.7 0 1.3.2 1.8.7s.7 1.1.7 1.8v1.3c0 .8-.3 1.5-.7 2.1zm2.9-12.4h-2.3v6.2c-.6-1.1-1.6-1.6-2.9-1.6-1.4 0-2.4.5-3.3 1.5s-1.2 2.3-1.2 4c0 1.5.4 2.8 1.1 3.7s1.7 1.3 3 1.3c1.5 0 2.6-.6 3.4-1.9v1.7h2.3v-14.9zm-19.5 10.7c0 .7-.2 1.3-.7 1.8s-1 .7-1.7.7c-.5 0-.9-.1-1.2-.4s-.5-.6-.5-1c0-.6.2-1 .5-1.2s.8-.4 1.5-.5l2.1-.3v.9zm2.2-2.4c0-2.5-1.3-3.7-3.8-3.7-1.4 0-2.6.3-3.7.9v2c1-.8 2-1.2 3.2-1.2 1.4 0 2 .7 2 2.1l-3 .4c-2.2.3-3.3 1.4-3.3 3.3 0 .9.3 1.6.8 2.1s1.3.8 2.3.8c1.3 0 2.3-.6 3-1.8v1.6h2.2V148zm-14.8-3.5c-.2-.1-.5-.2-.9-.2-.6 0-1.1.2-1.5.6s-.8.9-1 1.6v-2.1H119v10h2.3v-4.8c0-1 .2-1.9.7-2.5s1-.9 1.7-.9c.5 0 .9.1 1.2.3v-2zm-11.2 2.4c.5.6.7 1.4.7 2.5s-.2 1.9-.7 2.5-1.2.9-2.1.9c-.9 0-1.6-.3-2.1-.9s-.8-1.4-.8-2.5.3-1.9.8-2.6 1.2-.9 2.1-.9c1 .1 1.7.4 2.1 1zm1.7 6.4c.9-1 1.4-2.2 1.4-3.8 0-1.6-.4-2.9-1.3-3.8s-2.1-1.4-3.7-1.4-2.9.5-3.9 1.4-1.4 2.3-1.4 3.9c0 1.5.5 2.8 1.4 3.7s2.2 1.4 3.7 1.4c1.6 0 2.8-.5 3.8-1.4zm-9.5-13.7c-.3-.1-.8-.2-1.3-.2-1 0-1.9.3-2.6.9s-1 1.4-1 2.5v1.6h-1.7v1.8h1.7v8.2h2.3v-8.2h2.3v-1.8h-2.3V143c0-1.2.6-1.9 1.7-1.9.4 0 .7.1 1 .3v-1.8zm-17.1 12.5c-.5.6-1.1.8-1.9.8-.8 0-1.4-.3-1.9-.9s-.7-1.4-.7-2.4c0-1.1.2-2 .7-2.7s1.2-1 2-1c.7 0 1.3.2 1.7.7s.7 1.1.7 1.8v1.3c.1 1.1-.1 1.8-.6 2.4zm3-7.6h-2.3v1.4c-.6-1.1-1.6-1.6-2.9-1.6-1.4 0-2.5.5-3.3 1.5s-1.2 2.4-1.2 4.1c0 1.5.4 2.7 1.1 3.6s1.7 1.3 2.9 1.3c1.5 0 2.6-.6 3.4-1.9v1.1c0 2.3-1.2 3.5-3.6 3.5-1 0-2-.3-3.1-.9v2.1c1 .4 2.1.7 3.4.7 3.7 0 5.5-1.8 5.5-5.5v-9.4zm-11.9 3.9c0-1.3-.3-2.4-.9-3.1s-1.4-1.1-2.5-1.1c-1.4 0-2.5.6-3.2 1.9v-1.7h-2.3v10h2.3v-5.7c0-.8.2-1.4.7-2s1-.8 1.7-.8c1.3 0 2 .9 2 2.8v5.6h2.3v-5.9zM68 144.5h-2.3v10H68v-10zm-.2-2.5c.3-.3.4-.6.4-.9 0-.4-.1-.7-.4-.9s-.6-.4-1-.4-.7.1-1 .4-.4.6-.4.9.1.7.4.9.6.4 1 .4.8-.1 1-.4zm-4.9 6.3c0-2.7-1.1-4.1-3.3-4.1-1.4 0-2.5.6-3.2 1.9v-6.5h-2.3v14.8h2.3V149c0-.9.2-1.6.7-2.2s1-.9 1.7-.9c1.3 0 2 1 2 3v5.5h2.3v-6.1zM51.8 152c-.7.6-1.5.9-2.3.9-1 0-1.7-.3-2.3-.9s-.9-1.4-.9-2.5c0-1 .3-1.9.9-2.5s1.4-1 2.4-1c.8 0 1.5.3 2.2.8v-2.1c-.7-.3-1.5-.5-2.4-.5-1.6 0-3 .5-3.9 1.5s-1.5 2.3-1.5 4c0 1.5.5 2.7 1.4 3.6s2.1 1.4 3.6 1.4c1.1 0 2-.2 2.8-.7v-2zm-8.6-7.5c-.2-.1-.5-.2-.9-.2-.6 0-1.1.2-1.5.6s-.8.9-1 1.6v-2.1h-2.3v10h2.3v-4.8c0-1 .2-1.9.7-2.5s1-.9 1.7-.9c.5 0 .9.1 1.2.3v-2zm-10.7 5.9c0 .7-.2 1.3-.7 1.8s-1 .7-1.7.7c-.5 0-.9-.1-1.2-.4s-.5-.6-.5-1c0-.6.2-1 .5-1.2s.8-.4 1.5-.5l2.1-.3v.9zm2.2-2.4c0-2.5-1.3-3.7-3.8-3.7-1.4 0-2.6.3-3.7.9v2c1-.8 2-1.2 3.2-1.2 1.4 0 2 .7 2 2.1l-3 .4c-2.2.3-3.3 1.4-3.3 3.3 0 .9.3 1.6.8 2.1s1.3.8 2.3.8c1.3 0 2.3-.6 3-1.8v1.6h2.2V148zm-16.7.5c.1-.8.4-1.4.8-1.9s1-.7 1.7-.7 1.2.2 1.6.7.6 1.1.6 1.9H18zm6.8.7c0-1.6-.4-2.8-1.1-3.7s-1.8-1.3-3.2-1.3-2.5.5-3.4 1.5-1.4 2.2-1.4 3.8c0 1.6.4 2.9 1.3 3.8s2 1.4 3.5 1.4 2.7-.3 3.6-.9V152c-.9.6-1.9 1-2.9 1s-1.7-.3-2.2-.8-1-1.2-1-2.1h6.8v-.9zm-18.9 5.1c.3.1.7.2 1 .2s.7.1 1 .2.6.1.9.1c.7 0 1.4-.1 2-.2s1.2-.4 1.7-.7.9-.7 1.2-1.2.4-1.1.4-1.8c0-.5-.1-1-.3-1.4s-.5-.8-.8-1.1-.7-.6-1.1-.9-.9-.5-1.4-.8c-.5-.2-.9-.4-1.3-.6s-.7-.4-.9-.6l-.6-.6c-.2-.2-.2-.5-.2-.8 0-.3.1-.6.3-.8s.4-.4.7-.6.6-.3.9-.3.7-.1 1-.1c1.3 0 2.3.3 3.1.9v-2.3c-.7-.3-1.7-.5-3.2-.5-.6 0-1.3.1-1.9.2s-1.2.4-1.7.7-.9.7-1.2 1.2-.4 1.1-.4 1.7c0 .5.1 1 .3 1.4s.4.8.7 1.1.7.6 1.1.9.9.5 1.3.8c.4.2.9.4 1.2.6s.7.4 1 .6.5.4.7.7.2.5.2.9c0 .6-.2 1.1-.7 1.4s-1.2.5-2.2.5c-.3 0-.6 0-.9-.1s-.7-.1-1-.2-.6-.2-.9-.4-.6-.3-.8-.5v2.4c.2-.3.4-.1.8 0z"/>
  <path d="M98 0h39.7c12.2 0 22 9.8 22 22v39.7c0 12.2-9.8 22-22 22H98c-12.2 0-22-9.8-22-22V22C76 9.8 85.8 0 98 0z" fill="#fff"/>
  <path class="st1" d="M155 68.1l-1.2 1.2v8.6h-8.6l-1.2 1.2h11v-11zm-74.3 0V79h10.9l-1.2-1.2h-8.6v-8.6l-1.1-1.1zM153 51.8V56h4.2v-4.2H153zm-8.3-4.7v4.2h4.2v-4.2h-4.2zm6-6.5v4.2h4.2v-4.2h-4.2zm-6.6-35.9l1.2 1.2h8.6v8.6l1.2 1.2v-11h-11zm-63.4 0v10.9l1.2-1.2V5.9h8.6l1.2-1.2h-11zM81.9 0h71.8c3.3 0 5.9 2.7 5.9 5.9v71.8c0 3.3-2.7 5.9-5.9 5.9h-24.2l-.5-1c-1.5-3.2-2-6.6-1.7-6.6 3 1.1 6.2 1.2 9.3.5 1.6-.3 2.9-1.5 3.4-3.1.2-.9 0-2.1.2-3 0-.4.2-.8.4-1.2 1.7-1.6-.9-2.7-1.5-4.2 1.3.4 2.8.3 4-.4 1-1 .8-2 .4-3.2-.5-1.1-.1-2.5 1.1-3.1 2-1.3 2-3.5.2-5.1-1-.8-1.7-1.9-2.1-3.1-.8-2.2.1-4.9.7-7.6 1.1-5.1-1.9-12.8-4.4-15.8-4.5-5.4-13.4-11-22.6-10.4-15 .2-26.4 9.7-27.4 22.5-1.5 19.3 13.7 25 15 34.1l-.7 10.9H81.9c-3.3 0-5.9-2.7-5.9-5.9v-72C76 2.7 78.6 0 81.9 0z"/>
  <path class="st0" d="M129.4 35.9h4.2v4.2h-4.2v-4.2zm-6 6.5h4.2v4.2h-4.2v-4.2zm8.3 4.7h4.2v4.2h-4.2v-4.2zM117.1 49h4.2v4.2h-4.2V49z"/>
  <path d="M153 51.8V56h4.2v-4.2H153zm-8.3-4.7v4.2h4.2v-4.2h-4.2zm-5.2-20l13.6 13.5h-2.5v4.2h4.2v-2.5l4.8 4.8v30.6c0 3.3-2.7 5.9-5.9 5.9h-24.2l-.5-1c-1.5-3.2-1.9-6.6-1.7-6.7 3 1.1 6.2 1.2 9.3.5 1.6-.3 2.9-1.5 3.4-3.1.2-.9 0-2.1.2-3 0-.4.2-.8.4-1.2 1.7-1.6-.9-2.7-1.5-4.2 1.3.4 2.7.2 4-.4 1-1 .8-2 .4-3.2-.5-1.1-.1-2.5 1.1-3.1 2-1.3 2-3.5.2-5.1-1-.8-1.7-1.9-2.1-3.1-.8-2.2.1-4.9.7-7.6.9-4.5-1.2-10.9-3.4-14.5l-.6-.9.1.1z"/>
</svg>
