<?xml version="1.0" encoding="UTF-8" standalone="no"?>
<!DOCTYPE svg PUBLIC "-//W3C//DTD SVG 1.1//EN" "http://www.w3.org/Graphics/SVG/1.1/DTD/svg11.dtd">
<svg width="100%" height="100%" viewBox="0 0 309 341" version="1.1" xmlns="http://www.w3.org/2000/svg" xmlns:xlink="http://www.w3.org/1999/xlink" xml:space="preserve" style="fill-rule:evenodd;clip-rule:evenodd;stroke-linejoin:round;stroke-miterlimit:1.41421;">
    <g id="Logo" transform="matrix(0.974441,0,0,1,-25.6562,-18.2278)">
        <rect x="26.329" y="18.228" width="316.962" height="340.253" style="fill:none;"/>
        <g transform="matrix(4.27596,0,0,4.16667,-874.38,-228.861)">
            <path d="M283.861,101.69C284.511,108.027 283.131,114.645 280.109,120.523C277.006,126.35 272.189,131.409 266.263,134.698L265.162,135.334C264.79,135.539 264.397,135.698 264.015,135.882C263.242,136.233 262.475,136.604 261.691,136.934C260.079,137.472 258.479,138.083 256.8,138.403C255.146,138.849 253.446,139.027 251.748,139.242C250.899,139.354 250.043,139.351 249.189,139.407C248.334,139.406 247.478,139.368 246.621,139.347L245.334,139.307C244.907,139.278 244.483,139.195 244.058,139.141L241.507,138.767L239.002,138.153L237.752,137.833L236.536,137.401C233.248,136.358 230.2,134.676 227.337,132.776C224.508,130.797 222.043,128.363 219.814,125.749C218.813,124.352 217.702,123.031 216.877,121.517C216.452,120.771 215.959,120.062 215.598,119.282C215.223,118.51 214.877,117.722 214.52,116.943C213.264,113.757 212.261,110.446 211.93,107.043C211.815,106.198 211.697,105.354 211.703,104.5C211.68,103.65 211.645,102.8 211.641,101.951C211.724,100.254 211.839,98.562 212.143,96.894C212.71,93.561 213.676,90.297 215.142,87.279C216.593,84.257 218.473,81.465 220.688,79.013C222.936,76.587 225.491,74.492 228.251,72.788C229.62,71.92 231.066,71.187 232.531,70.534C233.287,70.251 234.023,69.936 234.783,69.688L237.072,69.002L237.199,69.349C231.335,71.538 226.101,75.343 222.205,80.228C218.272,85.091 215.799,91.082 215.019,97.264C214.795,98.809 214.755,100.372 214.735,101.93C214.85,103.484 214.81,105.054 215.123,106.586C215.493,109.688 216.49,112.676 217.693,115.539L218.712,117.642C219.043,118.347 219.504,118.982 219.893,119.656C220.646,121.024 221.677,122.205 222.587,123.466C224.634,125.808 226.878,127.994 229.452,129.754C232.028,131.481 234.758,133.044 237.726,134.007L238.821,134.411L239.95,134.709L242.212,135.29L244.52,135.647C244.906,135.702 245.288,135.78 245.676,135.814L246.843,135.875C247.62,135.912 248.398,135.968 249.176,135.99C249.954,135.954 250.737,135.98 251.511,135.895C253.06,135.731 254.618,135.615 256.135,135.239C257.679,134.992 259.148,134.452 260.643,134.012C261.371,133.736 262.085,133.421 262.808,133.127C263.165,132.972 263.535,132.842 263.883,132.666L264.916,132.119C267.711,130.729 270.25,128.856 272.536,126.74C274.863,124.653 276.788,122.151 278.439,119.509L279.616,117.483L280.604,115.358C280.964,114.662 281.191,113.912 281.457,113.178C281.699,112.436 282.029,111.719 282.183,110.951L282.752,108.677C282.924,107.915 282.998,107.134 283.127,106.363L283.301,105.203C283.344,104.815 283.347,104.423 283.372,104.033L283.492,101.69L283.861,101.69Z" style="fill:rgb(57,80,112);fill-rule:nonzero;"/>
        </g>
        <g transform="matrix(4.27596,0,0,4.16667,-874.38,-228.861)">
            <path d="M238.547,115.652C245.511,114.996 250.022,115.872 251.82,118.406C246.344,116.429 241.267,117.432 236.307,119.626C234.839,120.276 232.557,124.371 232.676,125.908C232.731,126.625 233.232,126.71 233.674,126.811C240.429,128.354 247.2,129.86 254.153,128.086C260.271,126.526 264.362,122.391 267.505,117.198C271.693,110.276 274.268,102.597 277.63,95.287C278.906,92.514 280.199,89.724 282.736,87.72C281.356,92.539 280.474,97.444 279.163,102.241C277.606,107.944 276.035,113.604 273.218,118.912C266.415,131.734 254.277,136.541 240.415,130.953C238.069,130.008 235.77,128.928 233.721,127.445C232.523,126.577 232.219,126.948 231.97,128.164C231.277,131.547 230.43,134.902 229.826,138.3C229.429,140.537 228.1,139.154 227.177,139.119C226.159,139.081 225.225,138.978 225.632,137.333C228.036,127.602 230.907,118.124 238.481,110.917C238.662,110.745 238.76,110.45 238.964,110.345C242.866,108.346 243.654,105.049 242.725,100.976C243.727,101.885 243.878,103.007 243.837,104.03C243.73,106.648 244.724,106.274 246.395,105.252C250.013,103.038 254.01,101.445 257.25,98.551C256.366,100.62 254.455,101.648 252.764,103.053C254.083,103.72 255.471,103.097 257.051,104.377C248.109,103.885 242.827,108.959 238.149,115.032C238.061,115.219 237.974,115.405 237.886,115.592C238.106,115.612 238.327,115.632 238.547,115.652" style="fill:rgb(57,80,112);fill-rule:nonzero;"/>
        </g>
        <g transform="matrix(4.27596,0,0,4.16667,-874.38,-228.861)">
            <path d="M235.68,60.477C241.202,64.958 243.708,70.906 244.104,77.865C244.31,81.498 244.286,81.496 247.94,80.816C259.366,78.691 270.331,80.829 281.148,84.77C278.469,84.761 275.789,84.754 273.11,84.741C264.942,84.703 256.776,84.646 248.756,86.595C236.564,89.558 230.134,96.715 228.645,109.171C228.205,112.851 227.979,116.557 227.596,120.928C226.012,116.909 225.4,113.299 225.158,109.63C224.532,100.107 227.395,92.027 235.15,86.042C235.779,85.557 236.162,84.93 236.437,84.209C239.38,76.492 240.287,68.851 235.626,61.402C235.499,61.2 235.496,60.921 235.435,60.677C235.518,60.611 235.599,60.545 235.68,60.477" style="fill:rgb(57,80,112);fill-rule:nonzero;"/>
        </g>
        <g transform="matrix(4.27596,0,0,4.16667,-874.38,-228.861)">
            <path d="M255.003,75.548C251.276,75.214 248.334,71.807 248.593,68.127C248.864,64.289 252.32,61.258 256.136,61.513C260.006,61.771 263.061,65.473 262.636,69.39C262.238,73.048 258.727,75.882 255.003,75.548" style="fill:rgb(57,80,112);fill-rule:nonzero;"/>
        </g>
        <g transform="matrix(4.27596,0,0,4.16667,-874.38,-228.861)">
            <path d="M235.435,60.677C235.35,60.574 235.178,60.397 235.193,60.379C235.397,60.141 235.548,60.28 235.678,60.478C235.599,60.544 235.517,60.611 235.435,60.677" style="fill:rgb(57,80,112);fill-rule:nonzero;"/>
        </g>
        <g transform="matrix(4.27596,0,0,4.16667,-874.38,-228.861)">
            <path d="M238.547,115.652C238.327,115.632 238.106,115.612 237.886,115.592C237.974,115.405 238.061,115.219 238.149,115.032C238.282,115.238 238.414,115.445 238.547,115.652" style="fill:rgb(57,80,112);fill-rule:nonzero;"/>
        </g>
    </g>
</svg>
