<?xml version="1.0" encoding="UTF-8" standalone="no"?>
<!DOCTYPE svg PUBLIC "-//W3C//DTD SVG 1.1//EN" "http://www.w3.org/Graphics/SVG/1.1/DTD/svg11.dtd">
<svg width="100%" height="100%" viewBox="0 0 512 520" version="1.1" xmlns="http://www.w3.org/2000/svg" xmlns:xlink="http://www.w3.org/1999/xlink" xml:space="preserve" style="fill-rule:evenodd;clip-rule:evenodd;stroke-linejoin:round;stroke-miterlimit:1.41421;">
    <g transform="matrix(1,0,0,1,-1178.21,0)">
        <g id="Step-3-.--Launch" transform="matrix(1,0,0,1,1171.43,-20.3974)">
            <rect x="6.782" y="20.397" width="511.768" height="519.185" style="fill:none;"/>
            <g transform="matrix(0.956185,0,0,0.956185,21.4901,36.9407)">
                <path d="M370,297.9C406.6,111.3 256.1,2 256.1,2C256.1,2 103.9,113.6 142.1,297.9C38.3,383.9 92.1,510 92.1,510C92.1,510 105.5,419.7 175.1,383.7C184.8,402.1 205.4,426.4 205.4,426.4L306.7,426.4C306.7,426.4 326.8,403.4 337,383.7C404.1,424.8 412.8,483.3 420,510C420,510 473.5,387.2 370,297.9ZM256.1,24.9C256.1,24.9 297.9,68 305.6,78.2L206.6,78.2C214.3,68 256.1,24.9 256.1,24.9ZM94.7,448.4C94.3,443.7 85.1,372.5 146.3,315.7C151.4,334.1 158.4,352.1 167.3,369.5C135.5,387.9 110.1,415.5 94.7,448.4ZM299.1,410.2L213,410.2C138,317.8 133.1,191 195.3,94.4L316.7,94.4C379,191 374.2,317.8 299.1,410.2ZM417.4,448.4C402,415.5 376.6,387.8 344.8,369.5C353.7,352.1 360.7,334.1 365.8,315.7C427.8,374.4 417.8,443.8 417.4,448.4Z" style="fill:rgb(233,107,34);fill-rule:nonzero;"/>
            </g>
            <g transform="matrix(0.956185,0,0,0.956185,21.4901,36.9407)">
                <path d="M256.1,126.8C224.8,126.8 199.4,152.2 199.4,183.5C199.4,214.8 224.8,240.2 256.1,240.2C287.4,240.2 312.8,214.8 312.8,183.5C312.8,152.2 287.3,126.8 256.1,126.8ZM256.1,224C233.8,224 215.6,205.8 215.6,183.5C215.6,161.2 233.8,143 256.1,143C278.4,143 296.6,161.2 296.6,183.5C296.6,205.8 278.4,224 256.1,224Z" style="fill:rgb(233,107,34);fill-rule:nonzero;"/>
            </g>
            <g transform="matrix(0.956185,0,0,0.956185,21.4901,36.9407)">
                <rect x="248" y="442.6" width="16.2" height="48.6" style="fill:rgb(191,41,67);"/>
            </g>
            <g transform="matrix(0.956185,0,0,0.956185,21.4901,36.9407)">
                <rect x="207.5" y="458.8" width="16.2" height="48.6" style="fill:rgb(191,41,67);"/>
            </g>
            <g transform="matrix(0.956185,0,0,0.956185,21.4901,36.9407)">
                <rect x="288.5" y="458.8" width="16.2" height="48.6" style="fill:rgb(191,41,67);"/>
            </g>
        </g>
    </g>
</svg>
