<?xml version="1.0" encoding="UTF-8" standalone="no"?>
<!DOCTYPE svg PUBLIC "-//W3C//DTD SVG 1.1//EN" "http://www.w3.org/Graphics/SVG/1.1/DTD/svg11.dtd">
<svg width="100%" height="100%" viewBox="0 0 512 520" version="1.1" xmlns="http://www.w3.org/2000/svg" xmlns:xlink="http://www.w3.org/1999/xlink" xml:space="preserve" style="fill-rule:evenodd;clip-rule:evenodd;stroke-linejoin:round;stroke-miterlimit:1.41421;">
    <g transform="matrix(1,0,0,1,0,-23.1779)">
        <g id="Step-1-.--talk" transform="matrix(1,0,0,1,-6.7817,2.78048)">
            <rect x="6.782" y="20.397" width="511.768" height="519.185" style="fill:none;"/>
            <g transform="matrix(0.820548,0,0,0.820548,57.7804,84.9381)">
                <path d="M207.2,366C227,349.5 239.6,324.6 239.6,296.9C239.6,247.2 199.2,206.8 149.5,206.8C99.8,206.8 59.4,247.2 59.4,296.9C59.4,324.6 72,349.5 91.8,366C42.4,387 0.2,435.5 2.1,509.9L296.9,509.9C296.9,509.9 305.1,409.1 207.2,366ZM75.8,296.9C75.8,256.3 108.9,223.2 149.5,223.2C190.1,223.2 223.2,256.3 223.2,296.9C223.2,337.5 190.1,370.6 149.5,370.6C108.9,370.6 75.8,337.6 75.8,296.9ZM18.7,493.5C22,440 57.3,394 108.7,377.2C121,383.5 134.8,387.1 149.5,387.1C164.2,387.1 178.1,383.5 190.3,377.2C241.7,394 277,440.1 280.3,493.5L18.7,493.5Z" style="fill:rgb(191,41,67);fill-rule:nonzero;"/>
            </g>
            <g transform="matrix(0.820548,0,0,0.820548,57.7804,84.9381)">
                <path d="M426.1,349.7C444.4,334.1 456.1,310.9 456.1,285.1C456.1,238.2 418,200.1 371.1,200.1C324.2,200.1 286.1,238.2 286.1,285.1C286.1,311 297.8,334.2 316.1,349.8C295.5,358.7 277.3,372.4 263,390.1L275.7,400.4C290.6,381.9 310.3,368.3 332.7,360.9C344.2,366.7 357.2,370.1 371,370.1C384.8,370.1 397.8,366.7 409.3,360.9C457,376.6 489.8,419.4 493.1,468.9L305.1,468.9L305.1,485.3L509.8,485.3C512,450 498.7,382.4 426.1,349.7ZM302.4,285.1C302.4,247.3 333.2,216.5 371,216.5C408.8,216.5 439.6,247.3 439.6,285.1C439.6,322.9 408.8,353.7 371,353.7C333.2,353.7 302.4,322.9 302.4,285.1Z" style="fill:rgb(233,107,34);fill-rule:nonzero;"/>
            </g>
            <g transform="matrix(0.820548,0,0,0.820548,57.7804,84.9381)">
                <path d="M75.8,149.5L79.9,149.5L108.6,187.7L137.3,149.5L185.3,149.5C199.9,174.8 226.5,190.4 256,190.4C268.3,190.4 280.5,187.6 291.6,182.3L330.9,193L330.8,141.7C335.5,131.2 337.9,120 337.9,108.6C337.9,65.1 303.8,29.5 260.9,27C254.5,12.4 240,2.1 223.2,2.1L75.8,2.1C53.2,2.1 34.9,20.5 34.9,43L34.9,108.5C34.8,131.2 53.2,149.5 75.8,149.5ZM264.1,108.6L264.1,43.7C296.4,47.8 321.4,75.3 321.4,108.6C321.4,124.8 314.3,138.1 314.3,138.1L314.3,171.6L289.5,164.9C289.5,164.9 274.4,174.1 255.8,174.1C235.6,174.1 217.1,164.9 204.8,149.5L223,149.5C245.7,149.5 264.1,131.2 264.1,108.6ZM51.2,43.1C51.2,29.6 62.2,18.5 75.8,18.5L223.2,18.5C236.7,18.5 247.8,29.5 247.8,43.1L247.8,108.6C247.8,122.1 236.8,133.2 223.2,133.2L129,133.2L108.5,160.5L88,133.2L75.8,133.2C62.3,133.2 51.2,122.2 51.2,108.6L51.2,43.1L51.2,43.1Z" style="fill:rgb(191,41,67);fill-rule:nonzero;"/>
            </g>
            <g transform="matrix(0.820548,0,0,0.820548,57.7804,84.9381)">
                <rect x="75.8" y="43.1" width="147.4" height="16.4" style="fill:rgb(191,41,67);"/>
            </g>
            <g transform="matrix(0.820548,0,0,0.820548,57.7804,84.9381)">
                <rect x="141.3" y="92.2" width="16.4" height="16.4" style="fill:rgb(191,41,67);"/>
            </g>
            <g transform="matrix(0.820548,0,0,0.820548,57.7804,84.9381)">
                <rect x="174" y="92.2" width="16.4" height="16.4" style="fill:rgb(191,41,67);"/>
            </g>
            <g transform="matrix(0.820548,0,0,0.820548,57.7804,84.9381)">
                <rect x="108.5" y="92.2" width="16.4" height="16.4" style="fill:rgb(191,41,67);"/>
            </g>
        </g>
    </g>
</svg>
